<?xml version="1.0" ?><svg viewBox="0 0 512 512" xmlns="http://www.w3.org/2000/svg"><defs><style>.cls-1{fill:#ffe05f;}.cls-2{fill:#ff6b6b;}.cls-3{fill:#ffca5e;}.cls-4{fill:#f98585;}</style></defs><title/><g data-name="StPatrick's-Flat" id="StPatrick_s-Flat"><g id="crown"><path class="cls-1" d="M264.0657,86.8882c53.1921-42.1946,9.1924-67.5626-8.0633-48.39-17.2461-19.1622-61.2609,6.1917-8.0634,48.39-63.1377-24.9684-63.1075,25.82-37.875,31.1779-6.5611,20.177,22.0547,40.9731,37.936,10.2656V149.69c-26.6616,3.6854-40,25.6345-40,44.71v32h96v-32c0-19.0752-13.3384-41.0243-40-44.71V128.321c15.8811,30.7223,44.5059,9.9357,37.9407-10.2548C327.1587,112.7119,327.209,61.917,264.0657,86.8882Z"/><path class="cls-2" d="M136.8,199.2H375.2a60,60,0,0,1,60,60V378.4a0,0,0,0,1,0,0H76.8a0,0,0,0,1,0,0V259.2A60,60,0,0,1,136.8,199.2Z"/><path class="cls-1" d="M457.6,426.4v-122c0-40.2811-67.2-40.2818-67.2,0v36.6836c0,30.5646-44.8,29.8842-44.8.5163V304.4c0-40.2811-67.2-40.2818-67.2,0v36.6835c0,30.5641-44.8,29.8854-44.8.5164V304.4c0-40.281-67.2-40.2817-67.2,0v36.6834c0,30.5647-44.8,29.8846-44.8.5165V304.4c0-40.281-67.2-40.2817-67.2,0v122c-29.3747,0-30.0439,44.8.5162,44.8H457.0838C487.6481,471.2,486.9678,426.4,457.6,426.4Z"/><path class="cls-3" d="M32,448.8a22.4659,22.4659,0,0,1,22.4-22.4H457.6A22.4658,22.4658,0,0,1,480,448.8Z"/><ellipse class="cls-2" cx="86.2392" cy="378.4" rx="16" ry="24"/><path class="cls-4" d="M70.2392,378.4a33.5717,33.5717,0,0,0,2.0774,11.8215,10.857,10.857,0,0,0,1.9226.1785c8.8365,0,16-10.7452,16-24a33.5723,33.5723,0,0,0-2.0774-11.8216,10.8578,10.8578,0,0,0-1.9226-.1784C77.4026,354.4,70.2392,365.1451,70.2392,378.4Z"/><ellipse class="cls-2" cx="200" cy="378.4" rx="16" ry="24"/><path class="cls-4" d="M184,378.4a33.5717,33.5717,0,0,0,2.0774,11.8215A10.8578,10.8578,0,0,0,188,390.4c8.8365,0,16-10.7452,16-24a33.5723,33.5723,0,0,0-2.0774-11.8216A10.8578,10.8578,0,0,0,200,354.4C191.1635,354.4,184,365.1451,184,378.4Z"/><ellipse class="cls-2" cx="312" cy="378.4" rx="16" ry="24"/><path class="cls-4" d="M296,378.4a33.5717,33.5717,0,0,0,2.0774,11.8215A10.8578,10.8578,0,0,0,300,390.4c8.8365,0,16-10.7452,16-24a33.5723,33.5723,0,0,0-2.0774-11.8216A10.8578,10.8578,0,0,0,312,354.4C303.1635,354.4,296,365.1451,296,378.4Z"/><ellipse class="cls-2" cx="424" cy="378.4" rx="16" ry="24"/><path class="cls-4" d="M408,378.4a33.5717,33.5717,0,0,0,2.0774,11.8215A10.8578,10.8578,0,0,0,412,390.4c8.8365,0,16-10.7452,16-24a33.5723,33.5723,0,0,0-2.0774-11.8216A10.8578,10.8578,0,0,0,424,354.4C415.1635,354.4,408,365.1451,408,378.4Z"/></g></g></svg>